<svg width="20" height="20" viewBox="0 0 20 20" fill="none" xmlns="http://www.w3.org/2000/svg">
<path d="M2.5083 9.35V13.0917C2.5083 16.8333 4.0083 18.3333 7.74997 18.3333H12.2416C15.9833 18.3333 17.4833 16.8333 17.4833 13.0917V9.35" stroke="blue" stroke-width="1.5" stroke-linecap="round" stroke-linejoin="round"/>
<path d="M10.0002 10C11.5252 10 12.6502 8.75833 12.5002 7.23333L11.9502 1.66667H8.05857L7.50024 7.23333C7.35024 8.75833 8.47524 10 10.0002 10Z" stroke="blue" stroke-width="1.5" stroke-linecap="round" stroke-linejoin="round"/>
<path d="M15.2587 10C16.942 10 18.1753 8.63333 18.0087 6.95833L17.7753 4.66667C17.4753 2.5 16.642 1.66667 14.4587 1.66667H11.917L12.5003 7.50833C12.642 8.88333 13.8837 10 15.2587 10V10Z" stroke="blue" stroke-width="1.5" stroke-linecap="round" stroke-linejoin="round"/>
<path d="M4.70015 10C6.07515 10 7.31681 8.88333 7.45015 7.50833L7.63348 5.66667L8.03349 1.66667H5.49181C3.30849 1.66667 2.47515 2.5 2.17515 4.66667L1.95015 6.95833C1.78348 8.63333 3.01681 10 4.70015 10Z" stroke="blue" stroke-width="1.5" stroke-linecap="round" stroke-linejoin="round"/>
<path d="M10.0003 14.1667C8.60866 14.1667 7.91699 14.8583 7.91699 16.25V18.3333H12.0837V16.25C12.0837 14.8583 11.392 14.1667 10.0003 14.1667Z" stroke="blue" stroke-width="1.5" stroke-linecap="round" stroke-linejoin="round"/>
</svg>
