<svg width="22" height="22" viewBox="0 0 22 22" fill="none" xmlns="http://www.w3.org/2000/svg">
<path d="M20.8134 4.63796C21.6418 3.80956 21.6418 2.46644 20.8134 1.63803L20.362 1.18655C19.5336 0.358144 18.1904 0.358145 17.362 1.18655L11 7.54862L4.6379 1.18655C3.80949 0.358147 2.46638 0.358145 1.63797 1.18655L1.18649 1.63803C0.358083 2.46644 0.358084 3.80955 1.18649 4.63796L7.54856 11L1.18649 17.3621C0.358086 18.1905 0.358084 19.5336 1.18649 20.362L1.63797 20.8135C2.46638 21.6419 3.80949 21.6419 4.6379 20.8135L11 14.4514L17.362 20.8135C18.1904 21.6419 19.5336 21.6419 20.362 20.8135L20.8134 20.362C21.6419 19.5336 21.6418 18.1905 20.8134 17.3621L14.4514 11L20.8134 4.63796Z" fill="white"/>
</svg>
