<svg width="30" height="32" viewBox="0 0 30 32" fill="none" xmlns="http://www.w3.org/2000/svg">
<path d="M0 13.3686C0 10.2744 0 8.72735 0.782647 7.49844C1.56529 6.26953 2.96724 5.61529 5.77114 4.3068L10.7711 1.97347C12.8509 1.00292 13.8908 0.517648 15 0.517648C16.1092 0.517648 17.1491 1.00292 19.2289 1.97347L24.2289 4.3068C27.0328 5.61529 28.4347 6.26953 29.2174 7.49844C30 8.72735 30 10.2744 30 13.3686V18.6314C30 21.7256 30 23.2727 29.2174 24.5016C28.4347 25.7305 27.0328 26.3847 24.2289 27.6932L19.2289 30.0265C17.1491 30.9971 16.1092 31.4824 15 31.4824C13.8908 31.4824 12.8509 30.9971 10.7711 30.0265L5.77115 27.6932C2.96724 26.3847 1.56529 25.7305 0.782647 24.5016C0 23.2727 0 21.7256 0 18.6314V13.3686Z" fill="#31E66E"/>
<path d="M18.3577 8H11.6503C8.73687 8 7 9.736 7 12.648V19.344C7 22.264 8.73687 24 11.6503 24H18.3497C21.2631 24 23 22.264 23 19.352V12.648C23.008 9.736 21.2711 8 18.3577 8Z" fill="#081F10" fill-opacity="0.6"/>
<path d="M16.813 16L15.6044 15.576V12.864H15.8926C16.5409 12.864 17.0692 13.432 17.0692 14.128C17.0692 14.456 17.3413 14.728 17.6695 14.728C17.9976 14.728 18.2698 14.456 18.2698 14.128C18.2698 12.768 17.2052 11.664 15.8926 11.664H15.6044V11.2C15.6044 10.872 15.3323 10.6 15.0041 10.6C14.676 10.6 14.4038 10.872 14.4038 11.2V11.664H13.8836C12.699 11.664 11.7305 12.664 11.7305 13.888C11.7305 15.32 12.5629 15.776 13.1952 16L14.4038 16.424V19.128H14.1157C13.4674 19.128 12.9391 18.56 12.9391 17.864C12.9391 17.536 12.6669 17.264 12.3388 17.264C12.0106 17.264 11.7385 17.536 11.7385 17.864C11.7385 19.224 12.803 20.328 14.1157 20.328H14.4038V20.8C14.4038 21.128 14.676 21.4 15.0041 21.4C15.3323 21.4 15.6044 21.128 15.6044 20.8V20.336H16.1247C17.3093 20.336 18.2778 19.336 18.2778 18.112C18.2698 16.672 17.4373 16.216 16.813 16ZM13.5954 14.872C13.1872 14.728 12.9391 14.592 12.9391 13.896C12.9391 13.328 13.3633 12.872 13.8916 12.872H14.4118V15.16L13.5954 14.872ZM16.1247 19.136H15.6044V16.848L16.4128 17.128C16.821 17.272 17.0692 17.408 17.0692 18.104C17.0692 18.672 16.6449 19.136 16.1247 19.136Z" fill="#31E56E"/>
</svg>
