<svg viewBox="0 0 30 32" fill="none" xmlns="http://www.w3.org/2000/svg">
<path d="M0 13.3686C0 10.2744 0 8.72735 0.782647 7.49844C1.56529 6.26953 2.96724 5.61529 5.77114 4.3068L10.7711 1.97347C12.8509 1.00292 13.8908 0.517648 15 0.517648C16.1092 0.517648 17.1491 1.00292 19.2289 1.97347L24.2289 4.3068C27.0328 5.61529 28.4347 6.26953 29.2174 7.49844C30 8.72735 30 10.2744 30 13.3686V18.6314C30 21.7256 30 23.2727 29.2174 24.5016C28.4347 25.7305 27.0328 26.3847 24.2289 27.6932L19.2289 30.0265C17.1491 30.9971 16.1092 31.4824 15 31.4824C13.8908 31.4824 12.8509 30.9971 10.7711 30.0265L5.77115 27.6932C2.96724 26.3847 1.56529 25.7305 0.782647 24.5016C0 23.2727 0 21.7256 0 18.6314V13.3686Z" fill="#FFD700"/>
<g clip-path="url(#clip0_11_387)">
<path d="M13.2846 18.1887C13.2168 17.8837 12.9464 17.6667 12.6339 17.6667H9.03728C8.72463 17.6664 8.45379 17.8835 8.38595 18.1887L7.34928 22.1887H7.34928C7.26938 22.5481 7.49598 22.9042 7.8554 22.9841C7.90286 22.9947 7.95133 23 7.99995 23H13.6713C14.0395 22.9999 14.3379 22.7014 14.3378 22.3332C14.3378 22.2846 14.3325 22.2361 14.3219 22.1887L13.2846 18.1887Z" fill="#473E0D"/>
<path d="M21.2848 18.1887C21.217 17.8837 20.9465 17.6667 20.6341 17.6667H17.0341C16.7215 17.6664 16.4506 17.8835 16.3828 18.1887L15.3461 22.1887C15.2662 22.5481 15.4928 22.9042 15.8522 22.9841C15.9008 22.9949 15.9504 23.0002 16.0001 23H21.6714C22.0396 22.9999 22.3381 22.7014 22.338 22.3332C22.338 22.2846 22.3327 22.2361 22.3221 22.1887L21.2848 18.1887Z" fill="#473E0D"/>
<path d="M12.3859 11.8553L11.3493 15.8553C11.2694 16.2148 11.496 16.5709 11.8554 16.6508C11.9029 16.6613 11.9513 16.6667 11.9999 16.6667H17.6713C18.0395 16.6666 18.3379 16.3681 18.3378 15.9999C18.3378 15.9513 18.3325 15.9028 18.3219 15.8553L17.2846 11.8553C17.2168 11.5504 16.9464 11.3334 16.6339 11.3333H13.0339C12.7225 11.3346 12.4535 11.5514 12.3859 11.8553L12.3859 11.8553Z" fill="#473E0D"/>
<path d="M9.56871 12.6473V12.6473C9.57083 12.9177 9.78773 13.1373 10.058 13.1427H10.0667C10.3341 13.1434 10.5549 12.9338 10.568 12.6667V12.6667C10.6913 11.5732 11.548 10.7068 12.64 10.5713C12.9162 10.5743 13.1424 10.3528 13.1454 10.0767C13.1483 9.80053 12.9269 9.57429 12.6507 9.57134C11.5514 9.48065 10.6746 8.61597 10.5687 7.51801V7.50001V7.5C10.5691 7.22423 10.3458 7.00037 10.07 7C10.0689 7 10.0678 7 10.0667 7.00001V7.00001C9.79093 6.99964 9.56708 7.2229 9.56671 7.49867C9.56671 7.49867 9.56671 7.49867 9.56671 7.49867V7.49867C9.46969 8.60245 8.59337 9.47681 7.48938 9.57134C7.21533 9.57536 6.99634 9.80062 7.00005 10.0747L7.00005 10.0747C7.00297 10.3501 7.22727 10.5717 7.50271 10.5713H7.50271C8.61311 10.6505 9.49496 11.5366 9.56871 12.6473L9.56871 12.6473Z" fill="#473E0D"/>
<path d="M22.714 13.0033L22.5374 12.978C22.098 12.9137 21.753 12.5687 21.6887 12.1293L21.6667 11.9527C21.6407 11.7704 21.4719 11.6437 21.2897 11.6697C21.1429 11.6906 21.0276 11.8059 21.0067 11.9527L20.9814 12.1293V12.1293C20.917 12.5689 20.5716 12.914 20.132 12.978L19.956 13.0033C19.7738 13.0293 19.6471 13.1981 19.6731 13.3804C19.694 13.5271 19.8093 13.6424 19.956 13.6633L20.1327 13.6887C20.572 13.7529 20.9171 14.098 20.9814 14.5373L21.0067 14.714C21.0327 14.8963 21.2015 15.023 21.3837 14.997C21.5305 14.9761 21.6458 14.8608 21.6667 14.714L21.692 14.5373C21.7564 14.0978 22.1018 13.7527 22.5414 13.6887L22.7174 13.6633C22.8996 13.6374 23.0263 13.4686 23.0003 13.2863C22.9794 13.1396 22.8641 13.0243 22.7174 13.0033H22.714Z" fill="#473E0D"/>
</g>
<defs>
<clipPath id="clip0_11_387">
<rect width="16" height="16" fill="white" transform="translate(7 7)"/>
</clipPath>
</defs>
</svg>
