<svg width="30" height="32" viewBox="0 0 30 32" fill="none" xmlns="http://www.w3.org/2000/svg">
<path d="M0 13.3686C0 10.2744 0 8.72735 0.782647 7.49844C1.56529 6.26953 2.96724 5.61529 5.77114 4.3068L10.7711 1.97347C12.8509 1.00292 13.8908 0.517648 15 0.517648C16.1092 0.517648 17.1491 1.00292 19.2289 1.97347L24.2289 4.3068C27.0328 5.61529 28.4347 6.26953 29.2174 7.49844C30 8.72735 30 10.2744 30 13.3686V18.6314C30 21.7256 30 23.2727 29.2174 24.5016C28.4347 25.7305 27.0328 26.3847 24.2289 27.6932L19.2289 30.0265C17.1491 30.9971 16.1092 31.4824 15 31.4824C13.8908 31.4824 12.8509 30.9971 10.7711 30.0265L5.77115 27.6932C2.96724 26.3847 1.56529 25.7305 0.782647 24.5016C0 23.2727 0 21.7256 0 18.6314V13.3686Z" fill="#FF7D45"/>
<g clip-path="url(#clip0_18_4684)">
<path d="M11 19.3333V15.3333C11 15.1492 10.8507 15 10.6666 15H6.99996C6.44768 14.9999 5.99987 15.4475 5.99976 15.9998C5.99974 16.067 6.00651 16.1341 6.01996 16.2L6.01996 16.2C6.4356 18.2156 8.2086 19.663 10.2666 19.6667H10.6666C10.8507 19.6667 11 19.5174 11 19.3333L11 19.3333Z" fill="#7E391B"/>
<path d="M14 12C14.1841 12 14.3333 12.1492 14.3333 12.3333V13C14.3333 13.5523 14.781 14 15.3333 14H18C18.5523 14 19 13.5523 19 13V9C19 8.44772 18.5523 8 18 8H15.3333C14.781 8 14.3333 8.44772 14.3333 9V9.66667C14.3333 9.85076 14.1841 10 14 10H7H7C6.44772 10 6 10.4477 6 11C6 11.5523 6.44772 12 7 12L14 12Z" fill="#7E391B"/>
<path d="M19.6667 19.6667H21.0001C21.5524 19.6667 22.0001 19.219 22.0001 18.6667V16C22.0001 15.4477 21.5524 15 21.0001 15H12.3334C12.1493 15 12.0001 15.1492 12.0001 15.3333V19.3333C12.0001 19.5174 12.1493 19.6667 12.3334 19.6667H13.0001C13.5524 19.6667 14.0001 20.1144 14.0001 20.6667C14.0001 21.356 13.5087 21.5213 12.6401 21.754C11.7607 21.9887 10.6667 22.282 10.6667 23.6667C10.6667 23.8508 10.816 24 11.0001 24H21.6667C21.8508 24 22.0001 23.8508 22.0001 23.6667C22.0001 22.3 20.9101 22 20.0347 21.764C19.1594 21.528 18.6667 21.3567 18.6667 20.6667C18.6667 20.1144 19.1145 19.6667 19.6667 19.6667Z" fill="#7E391B"/>
</g>
<defs>
<clipPath id="clip0_18_4684">
<rect width="16" height="16" fill="white" transform="translate(6 8)"/>
</clipPath>
</defs>
</svg>
