<svg width="30" height="32" viewBox="0 0 30 32" fill="none" xmlns="http://www.w3.org/2000/svg">
<path d="M0 13.3686C0 10.2744 0 8.72735 0.782647 7.49844C1.56529 6.26953 2.96724 5.61529 5.77114 4.3068L10.7711 1.97347C12.8509 1.00292 13.8908 0.517648 15 0.517648C16.1092 0.517648 17.1491 1.00292 19.2289 1.97347L24.2289 4.3068C27.0328 5.61529 28.4347 6.26953 29.2174 7.49844C30 8.72735 30 10.2744 30 13.3686V18.6314C30 21.7256 30 23.2727 29.2174 24.5016C28.4347 25.7305 27.0328 26.3847 24.2289 27.6932L19.2289 30.0265C17.1491 30.9971 16.1092 31.4824 15 31.4824C13.8908 31.4824 12.8509 30.9971 10.7711 30.0265L5.77115 27.6932C2.96724 26.3847 1.56529 25.7305 0.782647 24.5016C0 23.2727 0 21.7256 0 18.6314V13.3686Z" fill="#47DEFF"/>
<g clip-path="url(#clip0_18_4562)">
<path d="M20.6666 20.8967L17.7586 15.9747C17.6981 15.8718 17.6664 15.7546 17.6666 15.6353V9.66667C17.6666 9.48257 17.8159 9.33333 18 9.33333H19C19.3681 9.33333 19.6666 9.03486 19.6666 8.66667C19.6666 8.29848 19.3681 8 19 8H11V8C10.6318 8 10.3333 8.29848 10.3333 8.66667C10.3333 9.03486 10.6318 9.33333 11 9.33333H12C12.184 9.33333 12.3333 9.48257 12.3333 9.66667V15.636V15.636C12.3332 15.7551 12.3012 15.8721 12.2406 15.9747L9.35862 20.854H9.35862C8.7257 21.7593 8.94647 23.0062 9.85173 23.6391C10.1865 23.8732 10.5848 23.9991 10.9933 24H19.004C20.1085 23.997 21.0015 23.0991 20.9985 21.9946C20.9974 21.604 20.8821 21.2224 20.6666 20.8967L20.6666 20.8967ZM12.782 18.6667C12.5979 18.6664 12.4488 18.517 12.4491 18.3329C12.4492 18.2735 12.4651 18.2152 12.4953 18.164L13.5733 16.3393C13.6338 16.2365 13.666 16.1194 13.6666 16V9.66667C13.6666 9.48257 13.8159 9.33333 14 9.33333H16C16.184 9.33333 16.3333 9.48257 16.3333 9.66667V11.5C16.3333 11.6841 16.184 11.8333 16 11.8333H15.12C14.8438 11.8333 14.62 12.0572 14.62 12.3333C14.62 12.6095 14.8438 12.8333 15.12 12.8333H16C16.184 12.8333 16.3333 12.9826 16.3333 13.1667V13.8333C16.3333 14.0174 16.184 14.1667 16 14.1667H15.12C14.8438 14.1667 14.62 14.3905 14.62 14.6667C14.62 14.9428 14.8438 15.1667 15.12 15.1667H16C16.184 15.1667 16.3333 15.3159 16.3333 15.5V16V16C16.3332 16.1194 16.3653 16.2366 16.426 16.3394L17.5046 18.164C17.5982 18.3226 17.5454 18.527 17.3869 18.6205C17.3357 18.6507 17.2774 18.6666 17.218 18.6667L12.782 18.6667ZM13.324 22.548C12.7717 22.548 12.324 22.1003 12.324 21.548C12.324 20.9957 12.7717 20.548 13.324 20.548C13.8762 20.548 14.324 20.9957 14.324 21.548C14.324 22.1003 13.8762 22.548 13.324 22.548ZM16.1366 20.5367C15.7684 20.5367 15.47 20.2382 15.47 19.87C15.47 19.5018 15.7684 19.2033 16.1366 19.2033C16.5048 19.2033 16.8033 19.5018 16.8033 19.87C16.8033 20.2382 16.5048 20.5367 16.1366 20.5367ZM17.8033 22.5913C17.4351 22.5913 17.1366 22.2929 17.1366 21.9247C17.1366 21.5565 17.4351 21.258 17.8033 21.258C18.1715 21.258 18.47 21.5565 18.47 21.9247V21.9247C18.47 22.2929 18.1715 22.5913 17.8033 22.5913C17.8022 22.5913 17.8011 22.5913 17.7999 22.5913H17.8033Z" fill="#1E6170"/>
</g>
<defs>
<clipPath id="clip0_18_4562">
<rect width="16" height="16" fill="white" transform="translate(7 8)"/>
</clipPath>
</defs>
</svg>
