<svg width="18" height="18" viewBox="0 0 18 18" fill="none" xmlns="http://www.w3.org/2000/svg">
<path opacity="0.8" d="M9.75116 1.10008L9.72616 1.15841L7.30947 6.76674H4.93447C4.36781 6.76674 3.83447 6.87508 3.33447 7.09174L4.79281 3.60841L4.82614 3.53341L4.87614 3.40008C4.90114 3.34174 4.91781 3.29174 4.94281 3.25008C6.03447 0.725077 7.26781 0.150077 9.75116 1.10008V1.10008Z" fill="white"/>
<path d="M14.2424 6.93335C13.8674 6.82502 13.4757 6.76668 13.0674 6.76668H7.30908L9.72575 1.15835L9.75075 1.10002C9.86742 1.14168 9.99242 1.20002 10.1174 1.24168L11.9591 2.01668C12.9841 2.44168 13.7007 2.88335 14.1424 3.41668C14.2174 3.51668 14.2841 3.60835 14.3507 3.71668C14.4257 3.83335 14.4841 3.95002 14.5174 4.07502C14.5508 4.15002 14.5757 4.21668 14.5924 4.29168C14.8091 5.00002 14.6758 5.85835 14.2424 6.93335V6.93335Z" fill="white"/>
<path opacity="0.4" d="M17.1336 10.8336V12.4586C17.1336 12.6253 17.1252 12.7919 17.1169 12.9503C16.9586 15.8669 15.3336 17.3336 12.2503 17.3336H5.75028C5.54194 17.3336 5.35028 17.3169 5.15861 17.2919C2.50861 17.1169 1.09194 15.7003 0.90861 13.0503C0.88361 12.8503 0.866943 12.6586 0.866943 12.4586V10.8336C0.866943 9.15859 1.88361 7.71692 3.33361 7.09193C3.83361 6.87526 4.36694 6.76693 4.93361 6.76693H13.0669C13.4752 6.76693 13.8669 6.82526 14.2419 6.93359C15.9086 7.44192 17.1336 8.99192 17.1336 10.8336V10.8336Z" fill="white"/>
<path opacity="0.6" d="M4.79194 3.60856L3.33361 7.09189C1.88361 7.71692 0.866943 9.15858 0.866943 10.8336V8.39192C0.866943 6.02523 2.55028 4.05023 4.79194 3.60856V3.60856Z" fill="white"/>
<path opacity="0.6" d="M17.1343 8.39192V10.8336C17.1343 8.99192 15.9093 7.44192 14.2427 6.93361C14.676 5.85861 14.8093 5.00028 14.5927 4.29195C14.576 4.21695 14.551 4.15028 14.5177 4.07528C16.076 4.88361 17.1343 6.52528 17.1343 8.39192V8.39192Z" fill="white"/>
</svg>
