<svg width="40" height="40" viewBox="0 0 40 40" fill="none" xmlns="http://www.w3.org/2000/svg">
<path opacity="0.8" d="M21.8024 1.04018L21.7424 1.18018L15.9423 14.6402H10.2423C8.88234 14.6402 7.60234 14.9002 6.40234 15.4202L9.90234 7.06018L9.98234 6.88018L10.1023 6.56018C10.1623 6.42018 10.2023 6.30018 10.2623 6.20018C12.8823 0.140178 15.8423 -1.23982 21.8024 1.04018Z" fill="#0B0322"/>
<path d="M32.5814 15.04C31.6814 14.78 30.7414 14.64 29.7614 14.64H15.9414L21.7414 1.18004L21.8014 1.04004C22.0814 1.14004 22.3814 1.28004 22.6814 1.38004L27.1014 3.24004C29.5614 4.26004 31.2814 5.32004 32.3414 6.60004C32.5214 6.84004 32.6814 7.06004 32.8414 7.32004C33.0214 7.60004 33.1614 7.88004 33.2414 8.18004C33.3214 8.36004 33.3814 8.52004 33.4214 8.70004C33.9414 10.4 33.6214 12.46 32.5814 15.04Z" fill="#0B0322"/>
<path opacity="0.4" d="M39.5204 24.4006V28.3006C39.5204 28.7006 39.5004 29.1006 39.4804 29.4806C39.1004 36.4806 35.2004 40.0006 27.8004 40.0006H12.2005C11.7005 40.0006 11.2405 39.9606 10.7805 39.9006C4.42047 39.4806 1.02047 36.0806 0.580469 29.7206C0.520469 29.2406 0.480469 28.7806 0.480469 28.3006V24.4006C0.480469 20.3806 2.92047 16.9206 6.40047 15.4206C7.60047 14.9006 8.88047 14.6406 10.2405 14.6406H29.7604C30.7404 14.6406 31.6804 14.7806 32.5804 15.0406C36.5804 16.2606 39.5204 19.9806 39.5204 24.4006Z" fill="#0B0322"/>
<path opacity="0.6" d="M9.90047 7.06053L6.40047 15.4205C2.92047 16.9206 0.480469 20.3806 0.480469 24.4006V18.5406C0.480469 12.8605 4.52047 8.12053 9.90047 7.06053Z" fill="#0B0322"/>
<path opacity="0.6" d="M39.522 18.5406V24.4006C39.522 19.9806 36.582 16.2606 32.582 15.0407C33.622 12.4607 33.942 10.4007 33.422 8.70066C33.382 8.52066 33.322 8.36066 33.242 8.18066C36.982 10.1207 39.522 14.0607 39.522 18.5406Z" fill="#0B0322"/>
</svg>
